<mxfile host="app.diagrams.net" modified="2023-07-09T12:44:02.875Z" agent="Mozilla/5.0 (Windows NT 10.0; Win64; x64) AppleWebKit/537.36 (KHTML, like Gecko) Chrome/114.0.0.0 Safari/537.36" etag="9D-wVdIB7SNLGAaDWW_L" version="21.5.2" type="device">
  <diagram name="Page-1" id="fLx2RP5TENplPjYpfYH0">
    <mxGraphModel dx="1434" dy="689" grid="1" gridSize="10" guides="1" tooltips="1" connect="1" arrows="1" fold="1" page="1" pageScale="1" pageWidth="850" pageHeight="1100" math="0" shadow="0">
      <root>
        <mxCell id="0" />
        <mxCell id="1" parent="0" />
        <mxCell id="2FiC6SnN4tvEQj74h3-H-34" value="" style="rounded=0;whiteSpace=wrap;html=1;" vertex="1" parent="1">
          <mxGeometry x="30" y="40" width="800" height="450" as="geometry" />
        </mxCell>
        <mxCell id="2FiC6SnN4tvEQj74h3-H-10" style="edgeStyle=orthogonalEdgeStyle;rounded=0;orthogonalLoop=1;jettySize=auto;html=1;entryX=0;entryY=0.5;entryDx=0;entryDy=0;" edge="1" parent="1" source="2FiC6SnN4tvEQj74h3-H-1" target="2FiC6SnN4tvEQj74h3-H-5">
          <mxGeometry relative="1" as="geometry" />
        </mxCell>
        <mxCell id="2FiC6SnN4tvEQj74h3-H-1" value="Client" style="html=1;whiteSpace=wrap;" vertex="1" parent="1">
          <mxGeometry x="60" y="74" width="110" height="50" as="geometry" />
        </mxCell>
        <mxCell id="2FiC6SnN4tvEQj74h3-H-2" value="Target" style="swimlane;fontStyle=1;align=center;verticalAlign=top;childLayout=stackLayout;horizontal=1;startSize=26;horizontalStack=0;resizeParent=1;resizeParentMax=0;resizeLast=0;collapsible=1;marginBottom=0;whiteSpace=wrap;html=1;" vertex="1" parent="1">
          <mxGeometry x="260" y="60" width="160" height="52" as="geometry" />
        </mxCell>
        <mxCell id="2FiC6SnN4tvEQj74h3-H-5" value="+ Request()" style="text;strokeColor=none;fillColor=none;align=left;verticalAlign=top;spacingLeft=4;spacingRight=4;overflow=hidden;rotatable=0;points=[[0,0.5],[1,0.5]];portConstraint=eastwest;whiteSpace=wrap;html=1;" vertex="1" parent="2FiC6SnN4tvEQj74h3-H-2">
          <mxGeometry y="26" width="160" height="26" as="geometry" />
        </mxCell>
        <mxCell id="2FiC6SnN4tvEQj74h3-H-6" value="Adaptee" style="swimlane;fontStyle=1;align=center;verticalAlign=top;childLayout=stackLayout;horizontal=1;startSize=26;horizontalStack=0;resizeParent=1;resizeParentMax=0;resizeLast=0;collapsible=1;marginBottom=0;whiteSpace=wrap;html=1;" vertex="1" parent="1">
          <mxGeometry x="460" y="60" width="160" height="52" as="geometry" />
        </mxCell>
        <mxCell id="2FiC6SnN4tvEQj74h3-H-7" value="+ SpecificRequest()" style="text;strokeColor=none;fillColor=none;align=left;verticalAlign=top;spacingLeft=4;spacingRight=4;overflow=hidden;rotatable=0;points=[[0,0.5],[1,0.5]];portConstraint=eastwest;whiteSpace=wrap;html=1;" vertex="1" parent="2FiC6SnN4tvEQj74h3-H-6">
          <mxGeometry y="26" width="160" height="26" as="geometry" />
        </mxCell>
        <mxCell id="2FiC6SnN4tvEQj74h3-H-11" style="edgeStyle=orthogonalEdgeStyle;rounded=0;orthogonalLoop=1;jettySize=auto;html=1;exitX=0.25;exitY=0;exitDx=0;exitDy=0;entryX=0.438;entryY=1;entryDx=0;entryDy=0;entryPerimeter=0;endArrow=block;endFill=0;" edge="1" parent="1" source="2FiC6SnN4tvEQj74h3-H-8" target="2FiC6SnN4tvEQj74h3-H-5">
          <mxGeometry relative="1" as="geometry" />
        </mxCell>
        <mxCell id="2FiC6SnN4tvEQj74h3-H-12" style="edgeStyle=orthogonalEdgeStyle;rounded=0;orthogonalLoop=1;jettySize=auto;html=1;exitX=0.75;exitY=0;exitDx=0;exitDy=0;entryX=0.556;entryY=1;entryDx=0;entryDy=0;entryPerimeter=0;endArrow=block;endFill=0;" edge="1" parent="1" source="2FiC6SnN4tvEQj74h3-H-8" target="2FiC6SnN4tvEQj74h3-H-7">
          <mxGeometry relative="1" as="geometry" />
        </mxCell>
        <mxCell id="2FiC6SnN4tvEQj74h3-H-15" value="(implementation)" style="edgeLabel;html=1;align=center;verticalAlign=middle;resizable=0;points=[];" vertex="1" connectable="0" parent="2FiC6SnN4tvEQj74h3-H-12">
          <mxGeometry x="0.2357" y="3" relative="1" as="geometry">
            <mxPoint x="-18" y="12" as="offset" />
          </mxGeometry>
        </mxCell>
        <mxCell id="2FiC6SnN4tvEQj74h3-H-8" value="Adapter" style="swimlane;fontStyle=1;align=center;verticalAlign=top;childLayout=stackLayout;horizontal=1;startSize=26;horizontalStack=0;resizeParent=1;resizeParentMax=0;resizeLast=0;collapsible=1;marginBottom=0;whiteSpace=wrap;html=1;" vertex="1" parent="1">
          <mxGeometry x="330" y="170" width="160" height="52" as="geometry" />
        </mxCell>
        <mxCell id="2FiC6SnN4tvEQj74h3-H-9" value="+ Request()" style="text;strokeColor=none;fillColor=none;align=left;verticalAlign=top;spacingLeft=4;spacingRight=4;overflow=hidden;rotatable=0;points=[[0,0.5],[1,0.5]];portConstraint=eastwest;whiteSpace=wrap;html=1;" vertex="1" parent="2FiC6SnN4tvEQj74h3-H-8">
          <mxGeometry y="26" width="160" height="26" as="geometry" />
        </mxCell>
        <mxCell id="2FiC6SnN4tvEQj74h3-H-13" value="SpecificRequest()" style="shape=note2;boundedLbl=1;whiteSpace=wrap;html=1;size=25;verticalAlign=top;align=center;" vertex="1" parent="1">
          <mxGeometry x="560" y="166" width="120" height="60" as="geometry" />
        </mxCell>
        <mxCell id="2FiC6SnN4tvEQj74h3-H-14" style="edgeStyle=orthogonalEdgeStyle;rounded=0;orthogonalLoop=1;jettySize=auto;html=1;entryX=-0.008;entryY=0.717;entryDx=0;entryDy=0;entryPerimeter=0;endArrow=none;endFill=0;dashed=1;" edge="1" parent="1" source="2FiC6SnN4tvEQj74h3-H-9" target="2FiC6SnN4tvEQj74h3-H-13">
          <mxGeometry relative="1" as="geometry" />
        </mxCell>
        <mxCell id="2FiC6SnN4tvEQj74h3-H-16" style="edgeStyle=orthogonalEdgeStyle;rounded=0;orthogonalLoop=1;jettySize=auto;html=1;endArrow=none;endFill=0;dashed=1;" edge="1" parent="1">
          <mxGeometry relative="1" as="geometry">
            <mxPoint x="40" y="270" as="sourcePoint" />
            <mxPoint x="820" y="270" as="targetPoint" />
          </mxGeometry>
        </mxCell>
        <mxCell id="2FiC6SnN4tvEQj74h3-H-17" style="edgeStyle=orthogonalEdgeStyle;rounded=0;orthogonalLoop=1;jettySize=auto;html=1;entryX=0;entryY=0.5;entryDx=0;entryDy=0;" edge="1" parent="1" source="2FiC6SnN4tvEQj74h3-H-18" target="2FiC6SnN4tvEQj74h3-H-20">
          <mxGeometry relative="1" as="geometry" />
        </mxCell>
        <mxCell id="2FiC6SnN4tvEQj74h3-H-18" value="Client" style="html=1;whiteSpace=wrap;" vertex="1" parent="1">
          <mxGeometry x="60" y="314" width="110" height="50" as="geometry" />
        </mxCell>
        <mxCell id="2FiC6SnN4tvEQj74h3-H-19" value="Target" style="swimlane;fontStyle=1;align=center;verticalAlign=top;childLayout=stackLayout;horizontal=1;startSize=26;horizontalStack=0;resizeParent=1;resizeParentMax=0;resizeLast=0;collapsible=1;marginBottom=0;whiteSpace=wrap;html=1;" vertex="1" parent="1">
          <mxGeometry x="260" y="300" width="160" height="52" as="geometry" />
        </mxCell>
        <mxCell id="2FiC6SnN4tvEQj74h3-H-20" value="+ Request()" style="text;strokeColor=none;fillColor=none;align=left;verticalAlign=top;spacingLeft=4;spacingRight=4;overflow=hidden;rotatable=0;points=[[0,0.5],[1,0.5]];portConstraint=eastwest;whiteSpace=wrap;html=1;" vertex="1" parent="2FiC6SnN4tvEQj74h3-H-19">
          <mxGeometry y="26" width="160" height="26" as="geometry" />
        </mxCell>
        <mxCell id="2FiC6SnN4tvEQj74h3-H-21" value="Adaptee" style="swimlane;fontStyle=1;align=center;verticalAlign=top;childLayout=stackLayout;horizontal=1;startSize=26;horizontalStack=0;resizeParent=1;resizeParentMax=0;resizeLast=0;collapsible=1;marginBottom=0;whiteSpace=wrap;html=1;" vertex="1" parent="1">
          <mxGeometry x="460" y="300" width="160" height="52" as="geometry" />
        </mxCell>
        <mxCell id="2FiC6SnN4tvEQj74h3-H-22" value="+ SpecificRequest()" style="text;strokeColor=none;fillColor=none;align=left;verticalAlign=top;spacingLeft=4;spacingRight=4;overflow=hidden;rotatable=0;points=[[0,0.5],[1,0.5]];portConstraint=eastwest;whiteSpace=wrap;html=1;" vertex="1" parent="2FiC6SnN4tvEQj74h3-H-21">
          <mxGeometry y="26" width="160" height="26" as="geometry" />
        </mxCell>
        <mxCell id="2FiC6SnN4tvEQj74h3-H-23" style="edgeStyle=orthogonalEdgeStyle;rounded=0;orthogonalLoop=1;jettySize=auto;html=1;exitX=0.25;exitY=0;exitDx=0;exitDy=0;entryX=0.438;entryY=1;entryDx=0;entryDy=0;entryPerimeter=0;endArrow=block;endFill=0;" edge="1" parent="1" source="2FiC6SnN4tvEQj74h3-H-26" target="2FiC6SnN4tvEQj74h3-H-20">
          <mxGeometry relative="1" as="geometry" />
        </mxCell>
        <mxCell id="2FiC6SnN4tvEQj74h3-H-30" style="edgeStyle=orthogonalEdgeStyle;rounded=0;orthogonalLoop=1;jettySize=auto;html=1;exitX=0.75;exitY=0;exitDx=0;exitDy=0;entryX=0.444;entryY=1;entryDx=0;entryDy=0;entryPerimeter=0;" edge="1" parent="1" source="2FiC6SnN4tvEQj74h3-H-26" target="2FiC6SnN4tvEQj74h3-H-22">
          <mxGeometry relative="1" as="geometry" />
        </mxCell>
        <mxCell id="2FiC6SnN4tvEQj74h3-H-31" value="uses adaptee" style="edgeLabel;html=1;align=center;verticalAlign=middle;resizable=0;points=[];" vertex="1" connectable="0" parent="2FiC6SnN4tvEQj74h3-H-30">
          <mxGeometry x="-0.1367" y="-3" relative="1" as="geometry">
            <mxPoint x="9" y="6" as="offset" />
          </mxGeometry>
        </mxCell>
        <mxCell id="2FiC6SnN4tvEQj74h3-H-26" value="Adapter" style="swimlane;fontStyle=1;align=center;verticalAlign=top;childLayout=stackLayout;horizontal=1;startSize=26;horizontalStack=0;resizeParent=1;resizeParentMax=0;resizeLast=0;collapsible=1;marginBottom=0;whiteSpace=wrap;html=1;" vertex="1" parent="1">
          <mxGeometry x="330" y="410" width="160" height="52" as="geometry" />
        </mxCell>
        <mxCell id="2FiC6SnN4tvEQj74h3-H-27" value="+ Request()" style="text;strokeColor=none;fillColor=none;align=left;verticalAlign=top;spacingLeft=4;spacingRight=4;overflow=hidden;rotatable=0;points=[[0,0.5],[1,0.5]];portConstraint=eastwest;whiteSpace=wrap;html=1;" vertex="1" parent="2FiC6SnN4tvEQj74h3-H-26">
          <mxGeometry y="26" width="160" height="26" as="geometry" />
        </mxCell>
        <mxCell id="2FiC6SnN4tvEQj74h3-H-28" value="adaptee.SpecificRequest()" style="shape=note2;boundedLbl=1;whiteSpace=wrap;html=1;size=25;verticalAlign=top;align=center;" vertex="1" parent="1">
          <mxGeometry x="560" y="416" width="210" height="46" as="geometry" />
        </mxCell>
        <mxCell id="2FiC6SnN4tvEQj74h3-H-29" style="edgeStyle=orthogonalEdgeStyle;rounded=0;orthogonalLoop=1;jettySize=auto;html=1;entryX=-0.008;entryY=0.717;entryDx=0;entryDy=0;entryPerimeter=0;endArrow=none;endFill=0;dashed=1;" edge="1" parent="1" source="2FiC6SnN4tvEQj74h3-H-27" target="2FiC6SnN4tvEQj74h3-H-28">
          <mxGeometry relative="1" as="geometry" />
        </mxCell>
        <mxCell id="2FiC6SnN4tvEQj74h3-H-32" value="Object adapter" style="text;html=1;strokeColor=none;fillColor=none;align=center;verticalAlign=middle;whiteSpace=wrap;rounded=0;fontStyle=1" vertex="1" parent="1">
          <mxGeometry x="30" y="410" width="140" height="30" as="geometry" />
        </mxCell>
        <mxCell id="2FiC6SnN4tvEQj74h3-H-33" value="Class adapter" style="text;html=1;strokeColor=none;fillColor=none;align=center;verticalAlign=middle;whiteSpace=wrap;rounded=0;fontStyle=1" vertex="1" parent="1">
          <mxGeometry x="40" y="181" width="140" height="30" as="geometry" />
        </mxCell>
      </root>
    </mxGraphModel>
  </diagram>
</mxfile>
